<svg width="22" height="20" viewBox="0 0 22 20" fill="none" xmlns="http://www.w3.org/2000/svg">
<path d="M1.25 1H2.636C3.146 1 3.591 1.343 3.723 1.835L4.106 3.272M4.106 3.272C9.67664 3.11589 15.2419 3.73515 20.642 5.112C19.818 7.566 18.839 9.95 17.718 12.25H6.5M4.106 3.272L6.5 12.25M6.5 12.25C5.70435 12.25 4.94129 12.5661 4.37868 13.1287C3.81607 13.6913 3.5 14.4544 3.5 15.25H19.25M5 18.25C5 18.4489 4.92098 18.6397 4.78033 18.7803C4.63968 18.921 4.44891 19 4.25 19C4.05109 19 3.86032 18.921 3.71967 18.7803C3.57902 18.6397 3.5 18.4489 3.5 18.25C3.5 18.0511 3.57902 17.8603 3.71967 17.7197C3.86032 17.579 4.05109 17.5 4.25 17.5C4.44891 17.5 4.63968 17.579 4.78033 17.7197C4.92098 17.8603 5 18.0511 5 18.25ZM17.75 18.25C17.75 18.4489 17.671 18.6397 17.5303 18.7803C17.3897 18.921 17.1989 19 17 19C16.8011 19 16.6103 18.921 16.4697 18.7803C16.329 18.6397 16.25 18.4489 16.25 18.25C16.25 18.0511 16.329 17.8603 16.4697 17.7197C16.6103 17.579 16.8011 17.5 17 17.5C17.1989 17.5 17.3897 17.579 17.5303 17.7197C17.671 17.8603 17.75 18.0511 17.75 18.25Z" stroke="#212121" stroke-width="1.5" stroke-linecap="round" stroke-linejoin="round"/>
</svg>
